<svg xmlns="http://www.w3.org/2000/svg" xmlns:xlink="http://www.w3.org/1999/xlink" width="100" height="100" viewBox="0 0 100 100">
  <defs>
    <filter id="Ellipse_3" x="0" y="0" width="100" height="100" filterUnits="userSpaceOnUse">
      <feOffset input="SourceAlpha"/>
      <feGaussianBlur stdDeviation="10" result="blur"/>
      <feFlood flood-opacity="0.161"/>
      <feComposite operator="in" in2="blur"/>
      <feComposite in="SourceGraphic"/>
    </filter>
  </defs>
  <g id="Group_563" data-name="Group 563" transform="translate(30 30)">
    <g transform="matrix(1, 0, 0, 1, -30, -30)" filter="url(#Ellipse_3)">
      <circle id="Ellipse_3-2" data-name="Ellipse 3" cx="20" cy="20" r="20" transform="translate(30 30)" fill="#225acb"/>
    </g>
    <g id="back" transform="translate(9 30) rotate(-90)">
      <g id="Group_25" data-name="Group 25" transform="translate(1.708 5.625)">
        <path id="Path_17" data-name="Path 17" d="M8.292,1.125l-7.5,7.5a.507.507,0,0,1-.667,0,.507.507,0,0,1,0-.667L7.958.125a.507.507,0,0,1,.667,0l7.833,7.833a.632.632,0,0,1,.167.333.632.632,0,0,1-.167.333.507.507,0,0,1-.667,0Z" fill="#fff"/>
      </g>
      <rect id="Rectangle_37" data-name="Rectangle 37" width="20" height="20" fill="none"/>
    </g>
  </g>
</svg>
