<svg xmlns="http://www.w3.org/2000/svg" width="24" height="18.866" viewBox="0 0 24 18.866">
  <g id="Group_11054" data-name="Group 11054" transform="translate(-2 -4.2)">
    <g id="Group_11053" data-name="Group 11053" transform="translate(2 4.2)">
      <g id="Group_11052" data-name="Group 11052">
        <path id="Path_35774" data-name="Path 35774" d="M25.045,7.066a2.818,2.818,0,0,0-1.91-.836H19.313a1.977,1.977,0,0,0-.6-1.433,2.2,2.2,0,0,0-1.433-.6H10.478a2.515,2.515,0,0,0-1.552.6A2.56,2.56,0,0,0,8.448,6.23H4.627a2.376,2.376,0,0,0-1.91.836A3.384,3.384,0,0,0,2,8.976V20.319a2.376,2.376,0,0,0,.836,1.91,2.818,2.818,0,0,0,1.91.836H23.254a2.376,2.376,0,0,0,1.91-.836A2.818,2.818,0,0,0,26,20.319V8.976A2.7,2.7,0,0,0,25.045,7.066ZM24.687,20.2h0a2.146,2.146,0,0,1-.478,1.075,1.164,1.164,0,0,1-1.075.478H4.627A1.43,1.43,0,0,1,3.194,20.2V8.976A1.459,1.459,0,0,1,3.672,7.9a1.513,1.513,0,0,1,1.075-.478H9.164a.564.564,0,0,0,.6-.6v-.6a.912.912,0,0,1,.239-.6.657.657,0,0,1,.6-.358H17.4a.816.816,0,0,1,.836.836v.716a.564.564,0,0,0,.6.6h4.418a1.43,1.43,0,0,1,1.433,1.552Z" transform="translate(-2 -4.2)" fill="#fff"/>
        <path id="Path_35775" data-name="Path 35775" d="M12.912,8.2a5.222,5.222,0,0,0-3.94,1.672A5.414,5.414,0,0,0,7.3,13.812a5.222,5.222,0,0,0,1.672,3.94,5.414,5.414,0,0,0,3.94,1.672,5.222,5.222,0,0,0,3.94-1.672,5.414,5.414,0,0,0,1.672-3.94,5.222,5.222,0,0,0-1.672-3.94A5.222,5.222,0,0,0,12.912,8.2Zm3.1,8.716a4.888,4.888,0,0,1-3.1,1.313,4.391,4.391,0,0,1-3.1-7.522,4.774,4.774,0,0,1,3.1-1.194,4.486,4.486,0,0,1,4.418,4.418A4.275,4.275,0,0,1,16.016,16.916Z" transform="translate(-0.972 -3.424)" fill="#fff"/>
        <circle id="Ellipse_174" data-name="Ellipse 174" cx="1.075" cy="1.075" r="1.075" transform="translate(18.985 4.776)" fill="#fff"/>
      </g>
    </g>
  </g>
</svg>
