<svg xmlns="http://www.w3.org/2000/svg" width="60" height="46.053" viewBox="0 0 60 46.053">
  <g id="Group_581" data-name="Group 581" transform="translate(-342.921 -443.985)">
    <path id="Path_13497" data-name="Path 13497" d="M791.462,465.843a3.742,3.742,0,0,1-.717-2.17c0-2.352,2.266-4.265,5.071-4.27s5.08,1.9,5.086,4.253-2.267,4.262-5.071,4.268a6.263,6.263,0,0,1-.782-.053l-.9,1.455A14.877,14.877,0,0,1,791.462,465.843Z" transform="translate(-447.824 0.419)" fill="#fff"/>
    <path id="Path_13498" data-name="Path 13498" d="M818.735,485.07a5.518,5.518,0,0,0,1.735-2.89c.768-3.387-1.882-6.877-5.919-7.793s-7.934,1.088-8.7,4.474,1.883,6.877,5.918,7.791a8.264,8.264,0,0,0,1.146.175l.824,2.389A22.025,22.025,0,0,0,818.735,485.07Z" transform="translate(-447.418 0.821)" fill="#fff"/>
    <path id="Path_13499" data-name="Path 13499" d="M823.374,464.014a3.65,3.65,0,0,0,1.15-1.912c.509-2.24-1.245-4.549-3.916-5.155s-5.247.719-5.757,2.959,1.245,4.55,3.916,5.156a5.473,5.473,0,0,0,.756.115l.547,1.581A14.445,14.445,0,0,0,823.374,464.014Z" transform="translate(-447.173 0.349)" fill="#fff"/>
    <path id="Path_13500" data-name="Path 13500" d="M841.577,471.111a3.11,3.11,0,0,0,.975-1.624c.432-1.9-1.056-3.863-3.324-4.378s-4.458.61-4.89,2.514,1.057,3.863,3.325,4.378a4.68,4.68,0,0,0,.642.1l.464,1.343A12.338,12.338,0,0,0,841.577,471.111Z" transform="translate(-446.64 0.572)" fill="#fff"/>
    <path id="Path_13501" data-name="Path 13501" d="M848.327,450.111a3.1,3.1,0,0,0,.976-1.624c.432-1.9-1.056-3.863-3.324-4.378s-4.457.61-4.89,2.514,1.057,3.863,3.325,4.378a4.726,4.726,0,0,0,.642.1l.463,1.343A12.328,12.328,0,0,0,848.327,450.111Z" transform="translate(-446.457 0)" fill="#fff"/>
  </g>
</svg>
