<svg xmlns="http://www.w3.org/2000/svg" width="75.471" height="57.928" viewBox="0 0 75.471 57.928">
  <g id="Group_518" data-name="Group 518" transform="translate(-342.921 -443.985)">
    <path id="Path_13497" data-name="Path 13497" d="M791.647,467.5a4.707,4.707,0,0,1-.9-2.729c-.005-2.959,2.851-5.365,6.379-5.371s6.39,2.389,6.4,5.349-2.852,5.361-6.379,5.369a7.879,7.879,0,0,1-.983-.067l-1.133,1.831A18.713,18.713,0,0,1,791.647,467.5Z" transform="translate(-447.824 4.503)" fill="#225acb"/>
    <path id="Path_13498" data-name="Path 13498" d="M822.092,487.882a6.94,6.94,0,0,0,2.183-3.635c.966-4.26-2.367-8.65-7.445-9.8s-9.98,1.368-10.947,5.628,2.369,8.65,7.445,9.8a10.4,10.4,0,0,0,1.441.22l1.036,3.005A27.706,27.706,0,0,0,822.092,487.882Z" transform="translate(-443.453 8.815)" fill="#225acb"/>
    <path id="Path_13499" data-name="Path 13499" d="M825.595,465.874a4.592,4.592,0,0,0,1.446-2.4c.64-2.818-1.566-5.723-4.926-6.485s-6.6.9-7.242,3.722,1.566,5.723,4.925,6.485a6.888,6.888,0,0,0,.951.145l.688,1.989A18.173,18.173,0,0,0,825.595,465.874Z" transform="translate(-440.812 3.743)" fill="#225acb"/>
    <path id="Path_13500" data-name="Path 13500" d="M843.463,472.691a3.912,3.912,0,0,0,1.226-2.043c.544-2.393-1.328-4.86-4.181-5.507s-5.607.768-6.151,3.162,1.329,4.859,4.182,5.507a5.884,5.884,0,0,0,.808.123l.583,1.689A15.518,15.518,0,0,0,843.463,472.691Z" transform="translate(-435.113 6.134)" fill="#225acb"/>
    <path id="Path_13501" data-name="Path 13501" d="M850.213,451.691a3.9,3.9,0,0,0,1.227-2.043c.543-2.393-1.328-4.86-4.182-5.507s-5.606.768-6.151,3.162,1.33,4.859,4.183,5.507a5.95,5.95,0,0,0,.808.123l.583,1.689A15.506,15.506,0,0,0,850.213,451.691Z" transform="translate(-433.142 0)" fill="#225acb"/>
  </g>
</svg>
