<svg id="Group_371" data-name="Group 371" xmlns="http://www.w3.org/2000/svg" width="22.16" height="22.161" viewBox="0 0 22.16 22.161">
  <g id="Group_368" data-name="Group 368">
    <path id="Path_13494" data-name="Path 13494" d="M215.213,481.064h-.439a10.2,10.2,0,1,1-2.988-7.213,10.169,10.169,0,0,1,2.988,7.213h.879a11.08,11.08,0,1,0-3.245,7.835,11.049,11.049,0,0,0,3.245-7.835h-.439" transform="translate(-193.492 -469.984)" fill="#225acb"/>
  </g>
  <g id="Group_369" data-name="Group 369" transform="translate(2.635 2.635)">
    <path id="Path_13495" data-name="Path 13495" d="M220.579,488.961h-.335a7.775,7.775,0,1,1-2.278-5.5,7.751,7.751,0,0,1,2.278,5.5h.67a8.446,8.446,0,1,0-2.474,5.972,8.421,8.421,0,0,0,2.474-5.972h-.335" transform="translate(-204.023 -480.516)" fill="#225acb"/>
  </g>
  <g id="Group_370" data-name="Group 370" transform="translate(5.27 5.27)">
    <path id="Path_13496" data-name="Path 13496" d="M225.945,496.857h-.23a5.35,5.35,0,1,1-1.567-3.783,5.334,5.334,0,0,1,1.567,3.783h.461a5.811,5.811,0,1,0-1.7,4.109,5.8,5.8,0,0,0,1.7-4.109h-.231" transform="translate(-214.554 -491.046)" fill="#225acb"/>
  </g>
</svg>
