<svg xmlns="http://www.w3.org/2000/svg" width="18.135" height="15" viewBox="0 0 18.135 15">
  <path id="Path_35573" data-name="Path 35573" d="M19.323,10.464H4.256l5.774-5.5a.821.821,0,0,0,0-1.083.821.821,0,0,0-1.083,0L2.361,10.1A2.211,2.211,0,0,0,2,11.186a1.665,1.665,0,0,0,.451,1.083l6.586,6.226a.663.663,0,0,0,.541.18.78.78,0,0,0,.541-.271.823.823,0,0,0,0-1.083l-5.774-5.5H19.414a.712.712,0,0,0,.722-.722c0-.361-.451-.632-.812-.632Z" transform="translate(20.135 18.675) rotate(180)" fill="#225acb"/>
</svg>
