<svg xmlns="http://www.w3.org/2000/svg" width="20.2" height="20.2" viewBox="0 0 20.2 20.2">
  <g id="Group_11020" data-name="Group 11020" transform="translate(0.1 0.1)">
    <g id="Group_10942" data-name="Group 10942">
      <g id="Group_10941" data-name="Group 10941">
        <path id="Path_13998" data-name="Path 13998" d="M14.9,17a.43.43,0,0,0-.4.4v2.9a.789.789,0,0,1-.8.8H3.7a.789.789,0,0,1-.8-.8V3.7a.789.789,0,0,1,.8-.8h10a.789.789,0,0,1,.8.8V6.6a.4.4,0,1,0,.8,0V3.7A1.685,1.685,0,0,0,13.6,2H3.6A1.605,1.605,0,0,0,2,3.7V20.4A1.605,1.605,0,0,0,3.7,22h10a1.685,1.685,0,0,0,1.7-1.7V17.4A.664.664,0,0,0,14.9,17Z" transform="translate(-2 -2)" fill="#225acb" stroke="#225acb" stroke-width="0.2"/>
        <path id="Path_13999" data-name="Path 13999" d="M21.9,11.7l-5-4.6c-.2-.2-.4-.1-.6,0-.2.2-.1.4,0,.6l4.2,3.9H7.4a.4.4,0,1,0,0,.8H20.5l-4.2,3.9a.375.375,0,0,0,0,.6.5.5,0,0,0,.6,0l5-4.6a.5.5,0,0,0,0-.6Z" transform="translate(-2 -2)" fill="#225acb" stroke="#225acb" stroke-width="0.2"/>
      </g>
    </g>
  </g>
</svg>
