<svg xmlns="http://www.w3.org/2000/svg" viewBox="0 0 165 36.21"><defs><style>.cls-1{fill:#225acb;}</style></defs><title>Logo</title><g id="Layer_2" data-name="Layer 2"><g id="Layer_1-2" data-name="Layer 1"><path class="cls-1" d="M25,11.25h1.54v2.16a6.58,6.58,0,0,1,2.06-1.85A5,5,0,0,1,31,10.94a4.27,4.27,0,0,1,2.4.69A4.1,4.1,0,0,1,35,13.48a9.89,9.89,0,0,1,.5,3.63v6.22H33.92V17.56a14,14,0,0,0-.17-2.79,3,3,0,0,0-1-1.81,3.12,3.12,0,0,0-2-.6,3.82,3.82,0,0,0-2.52.93,4.28,4.28,0,0,0-1.47,2.31,15.81,15.81,0,0,0-.23,3.29v4.44H25Z"/><path class="cls-1" d="M49,19.32l1.31.69a7.19,7.19,0,0,1-1.49,2,6.17,6.17,0,0,1-1.9,1.18,6.66,6.66,0,0,1-2.39.4,5.77,5.77,0,0,1-4.63-1.93,6.58,6.58,0,0,1-1.67-4.39,6.4,6.4,0,0,1,1.42-4.09,5.76,5.76,0,0,1,4.79-2.29,6,6,0,0,1,4.94,2.35,6.56,6.56,0,0,1,1.34,4.14H39.79a4.92,4.92,0,0,0,1.35,3.45,4.29,4.29,0,0,0,3.22,1.34,5,5,0,0,0,1.8-.32,4.69,4.69,0,0,0,1.49-.85A7.37,7.37,0,0,0,49,19.32Zm0-3.24a5.16,5.16,0,0,0-.92-2,4.12,4.12,0,0,0-1.58-1.2,4.73,4.73,0,0,0-2.06-.46,4.44,4.44,0,0,0-3.08,1.15A5.22,5.22,0,0,0,40,16.08Z"/><path class="cls-1" d="M55,6.78H56.5v4.47H59v1.36H56.5V23.33H55V12.61H52.84V11.25H55Z"/><path class="cls-1" d="M73.27,11.25V23.33H71.72V21.26A6.52,6.52,0,0,1,69.54,23a6.08,6.08,0,0,1-7-1.26,6.23,6.23,0,0,1-1.81-4.52,6.15,6.15,0,0,1,1.83-4.47,6,6,0,0,1,4.39-1.85,5.7,5.7,0,0,1,2.68.63,6.08,6.08,0,0,1,2.1,1.9V11.25Zm-6.21,1.17a4.59,4.59,0,0,0-2.38.64,4.71,4.71,0,0,0-1.74,1.8,5,5,0,0,0,0,4.89,4.72,4.72,0,0,0,1.75,1.82,4.46,4.46,0,0,0,2.35.65,4.81,4.81,0,0,0,2.41-.64,4.46,4.46,0,0,0,1.75-1.75,5.09,5.09,0,0,0,.61-2.48,4.89,4.89,0,0,0-1.37-3.52A4.56,4.56,0,0,0,67.06,12.42Z"/><path class="cls-1" d="M76.8,11.25h1.54v2.22a6.22,6.22,0,0,1,2.12-1.9,5.67,5.67,0,0,1,2.68-.63,6,6,0,0,1,4.4,1.85,6.15,6.15,0,0,1,1.83,4.47,6.23,6.23,0,0,1-1.81,4.52,6.11,6.11,0,0,1-7,1.26,6.52,6.52,0,0,1-2.19-1.78v6.48H76.8ZM83,12.42a4.57,4.57,0,0,0-3.4,1.41,4.85,4.85,0,0,0-1.37,3.52,5,5,0,0,0,.61,2.48,4.49,4.49,0,0,0,1.76,1.75,4.84,4.84,0,0,0,2.42.64,4.48,4.48,0,0,0,2.35-.65,4.72,4.72,0,0,0,1.75-1.82,4.89,4.89,0,0,0,0-4.89,4.71,4.71,0,0,0-1.74-1.8A4.63,4.63,0,0,0,83,12.42Z"/><path class="cls-1" d="M90.64,6.41h3.19v6.26h5.54V6.41h3.19V23H99.37V15.73H93.83V23H90.64Z"/><path class="cls-1" d="M106.4,6.41h9V9.46h-5.91v3h5.91v3h-5.91v4.36h5.91V23h-9Z"/><path class="cls-1" d="M118.35,6.41h3.13V20h4.66v3h-7.79Z"/><path class="cls-1" d="M128.5,6.41h3.14V20h4.66v3h-7.8Z"/><path class="cls-1" d="M146.5,6a8.22,8.22,0,0,1,6.05,2.55,8.47,8.47,0,0,1,2.53,6.21,8.35,8.35,0,0,1-2.5,6.14,8.63,8.63,0,0,1-12.25-.06,8.57,8.57,0,0,1-2.47-6.14A8.57,8.57,0,0,1,139,10.32,8.68,8.68,0,0,1,146.5,6Zm0,3a5.18,5.18,0,0,0-3.87,1.61A5.58,5.58,0,0,0,141,14.73a5.35,5.35,0,0,0,2,4.37,5.41,5.41,0,0,0,3.52,1.26,5.16,5.16,0,0,0,3.83-1.63,5.58,5.58,0,0,0,1.58-4,5.58,5.58,0,0,0-1.59-4A5.17,5.17,0,0,0,146.46,9Z"/><path class="cls-1" d="M21.85,17.69h-.44a10.26,10.26,0,1,1-3-7.26,10.22,10.22,0,0,1,3,7.26h.88A11.13,11.13,0,1,0,19,25.57a11.12,11.12,0,0,0,3.26-7.88h-.44"/><path class="cls-1" d="M19.3,17.69H19a7.84,7.84,0,1,1-2.3-5.53A7.79,7.79,0,0,1,19,17.69h.67a8.5,8.5,0,1,0-2.49,6,8.46,8.46,0,0,0,2.49-6H19.3"/><path class="cls-1" d="M16.76,17.69h-.23A5.38,5.38,0,1,1,15,13.88a5.38,5.38,0,0,1,1.58,3.81H17a5.84,5.84,0,1,0-1.71,4.13A5.87,5.87,0,0,0,17,17.69h-.23"/><path class="cls-1" d="M150.48,5.46a.94.94,0,0,1-.18-.53,1.26,1.26,0,0,1,2.49,0,1.16,1.16,0,0,1-1.24,1l-.19,0-.23.36A3.92,3.92,0,0,1,150.48,5.46Z"/><path class="cls-1" d="M157.26,10.27a1.33,1.33,0,0,0,.42-.71,1.86,1.86,0,0,0-3.58-.81,1.7,1.7,0,0,0,1.45,1.9,1.51,1.51,0,0,0,.28,0l.2.58A5.32,5.32,0,0,0,157.26,10.27Z"/><path class="cls-1" d="M158.45,5a.92.92,0,0,0,.29-.47,1.14,1.14,0,0,0-1-1.26,1.13,1.13,0,0,0-1.41.73,1.12,1.12,0,0,0,1,1.26l.18,0,.13.38A3.11,3.11,0,0,0,158.45,5Z"/><path class="cls-1" d="M163,6.79a.76.76,0,0,0,.24-.4,1,1,0,0,0-2-.46A1,1,0,0,0,162.09,7a.8.8,0,0,0,.15,0l.12.33A3,3,0,0,0,163,6.79Z"/><path class="cls-1" d="M164.74,1.5a.72.72,0,0,0,.24-.4A1,1,0,0,0,164.17,0a1,1,0,0,0-1.2.62,1,1,0,0,0,.81,1.07l.16,0,.11.33A2.69,2.69,0,0,0,164.74,1.5Z"/><path class="cls-1" d="M69.11,30.31H67.59v-.55h3.69v.55H69.76v4.44h-.65Z"/><path class="cls-1" d="M74.5,34.75l0-.46h0a1.31,1.31,0,0,1-1.09.54,1,1,0,0,1-1.1-1c0-.87.77-1.34,2.15-1.33v-.08a.73.73,0,0,0-.81-.82,1.8,1.8,0,0,0-.93.26l-.15-.43a2.27,2.27,0,0,1,1.18-.31c1.09,0,1.36.74,1.36,1.46v1.34a4.58,4.58,0,0,0,.06.86Zm-.09-1.83c-.71,0-1.52.11-1.52.81a.58.58,0,0,0,.62.62.89.89,0,0,0,.86-.6.78.78,0,0,0,0-.21Z"/><path class="cls-1" d="M77.27,32.33c0-.45,0-.82,0-1.16h.59l0,.61h0a1.4,1.4,0,0,1,1.27-.69,1.62,1.62,0,0,1,1.52,1.81A1.7,1.7,0,0,1,79,34.83a1.26,1.26,0,0,1-1.1-.56h0v1.94h-.64Zm.64,1a2.23,2.23,0,0,0,0,.27,1,1,0,0,0,1,.76c.69,0,1.09-.57,1.09-1.39s-.38-1.33-1.07-1.33a1,1,0,0,0-1,.81,1.17,1.17,0,0,0,0,.27Z"/><path class="cls-1" d="M82.33,34.36a.44.44,0,1,1,.44.47A.44.44,0,0,1,82.33,34.36Z"/><path class="cls-1" d="M85.43,34a2.26,2.26,0,0,0,1.15.33c.66,0,1-.35,1-.85s-.27-.74-.94-1-1.32-.71-1.32-1.42A1.43,1.43,0,0,1,87,29.68a2.33,2.33,0,0,1,1.1.24l-.17.53a2,2,0,0,0-1-.24c-.68,0-.94.41-.94.75s.3.69,1,1,1.27.73,1.27,1.47-.57,1.43-1.74,1.43a2.52,2.52,0,0,1-1.27-.32Z"/><path class="cls-1" d="M90.33,29.49H91v2.24h0a1.16,1.16,0,0,1,.47-.46,1.33,1.33,0,0,1,.66-.18c.48,0,1.25.29,1.25,1.53v2.13h-.65V32.69c0-.58-.21-1.07-.83-1.07a.94.94,0,0,0-.87.66.71.71,0,0,0,0,.31v2.16h-.65Z"/><path class="cls-1" d="M97.6,34.75l-.06-.46h0a1.31,1.31,0,0,1-1.09.54,1,1,0,0,1-1.1-1c0-.87.77-1.34,2.15-1.33v-.08a.73.73,0,0,0-.81-.82,1.8,1.8,0,0,0-.93.26l-.15-.43a2.27,2.27,0,0,1,1.18-.31c1.09,0,1.36.74,1.36,1.46v1.34a4.58,4.58,0,0,0,.06.86Zm-.1-1.83c-.71,0-1.52.11-1.52.81a.58.58,0,0,0,.62.62.89.89,0,0,0,.86-.6.78.78,0,0,0,0-.21Z"/><path class="cls-1" d="M100.36,32.28c0-.42,0-.78,0-1.11h.57l0,.7h0a1.08,1.08,0,0,1,1-.78.55.55,0,0,1,.19,0v.61l-.22,0a.9.9,0,0,0-.87.83,1.48,1.48,0,0,0,0,.31v1.91h-.65Z"/><path class="cls-1" d="M104.25,33.07a1.16,1.16,0,0,0,1.23,1.25,2.22,2.22,0,0,0,1-.19l.11.47a3,3,0,0,1-1.19.22,1.66,1.66,0,0,1-1.76-1.8,1.74,1.74,0,0,1,1.68-1.93,1.51,1.51,0,0,1,1.48,1.68c0,.13,0,.24,0,.3Zm1.91-.46a.92.92,0,0,0-.9-1.06,1.08,1.08,0,0,0-1,1.06Z"/><path class="cls-1" d="M108.54,34.36a.44.44,0,1,1,.88,0,.44.44,0,1,1-.88,0Z"/><path class="cls-1" d="M111.43,34.75v-5h.7l1.6,2.52a13.5,13.5,0,0,1,.89,1.62h0c-.06-.67-.08-1.28-.08-2V29.76h.61v5h-.65l-1.58-2.53a17.84,17.84,0,0,1-.94-1.67h0c0,.63,0,1.23,0,2.06v2.13Z"/><path class="cls-1" d="M117.82,33.07a1.15,1.15,0,0,0,1.23,1.25,2.28,2.28,0,0,0,1-.19l.11.47a3,3,0,0,1-1.19.22A1.65,1.65,0,0,1,117.2,33a1.73,1.73,0,0,1,1.68-1.93,1.51,1.51,0,0,1,1.47,1.68,2,2,0,0,1,0,.3Zm1.91-.46a.93.93,0,0,0-.91-1.06,1.1,1.1,0,0,0-1,1.06Z"/><path class="cls-1" d="M123.13,30.14v1h.93v.49h-.93v1.93c0,.45.12.7.49.7a1.09,1.09,0,0,0,.37,0l0,.49a1.57,1.57,0,0,1-.57.09.94.94,0,0,1-.71-.27,1.37,1.37,0,0,1-.25-.94V31.66h-.55v-.49h.55v-.86Z"/><path class="cls-1" d="M126.3,31.17l.47,1.82c.11.4.2.76.27,1.13h0c.08-.36.2-.74.32-1.13l.58-1.82h.55l.56,1.79c.13.43.23.8.31,1.16h0a11.09,11.09,0,0,1,.27-1.16l.51-1.79h.64l-1.15,3.58h-.59L128.54,33c-.12-.4-.23-.76-.32-1.18h0a9.63,9.63,0,0,1-.33,1.18l-.57,1.71h-.59l-1.08-3.58Z"/><path class="cls-1" d="M135.83,32.93a1.75,1.75,0,0,1-1.78,1.9A1.7,1.7,0,0,1,132.34,33a1.74,1.74,0,0,1,1.77-1.9A1.69,1.69,0,0,1,135.83,32.93ZM133,33c0,.79.46,1.38,1.09,1.38s1.09-.59,1.09-1.39c0-.61-.3-1.38-1.07-1.38S133,32.28,133,33Z"/><path class="cls-1" d="M137.84,32.28c0-.42,0-.78,0-1.11h.57l0,.7h0a1.07,1.07,0,0,1,1-.78.55.55,0,0,1,.19,0v.61l-.22,0a.92.92,0,0,0-.88.83,2.72,2.72,0,0,0,0,.31v1.91h-.64Z"/><path class="cls-1" d="M142.11,32.81h0c.09-.13.21-.28.32-.41l1.05-1.23h.78l-1.38,1.47,1.57,2.11h-.79L142.45,33l-.34.37v1.35h-.64V29.49h.64Z"/><rect class="cls-1" x="18.27" y="32.5" width="44.29" height="0.75"/><polygon class="cls-1" points="156.46 13.02 156.16 13.02 156.16 12.72 157.16 12.72 157.16 13.02 156.86 13.02 156.86 14.7 156.46 14.7 156.46 13.02"/><path class="cls-1" d="M158.64,13.91v-.7h0c0,.2-.1.5-.1.7l-.2.79h-.19l-.2-.79a1.7,1.7,0,0,1-.1-.7h0V14.7h-.3l.1-2h.3l.2.79a4.35,4.35,0,0,0,.19.69h0c0-.19.1-.39.1-.69l.1-.79h.3l.1,2h-.4Z"/></g></g></svg>