<svg id="Group_376" data-name="Group 376" xmlns="http://www.w3.org/2000/svg" width="19.92" height="24" viewBox="0 0 19.92 24">
  <path id="Path_14" data-name="Path 14" d="M12.86,13.52a5.736,5.736,0,0,0,5.76-5.76,5.714,5.714,0,0,0-1.68-4.08A5.926,5.926,0,0,0,12.86,2,5.736,5.736,0,0,0,7.1,7.76a5.714,5.714,0,0,0,1.68,4.08A5.264,5.264,0,0,0,12.86,13.52ZM9.74,4.64a4.357,4.357,0,0,1,3.12-1.32,3.926,3.926,0,0,1,3.12,1.32A4.357,4.357,0,0,1,17.3,7.76a3.926,3.926,0,0,1-1.32,3.12,4.357,4.357,0,0,1-3.12,1.32,3.926,3.926,0,0,1-3.12-1.32A4.357,4.357,0,0,1,8.42,7.76,4.572,4.572,0,0,1,9.74,4.64Z" transform="translate(-3.02 -2)"/>
  <path id="Path_15" data-name="Path 15" d="M23.62,18.56A8.258,8.258,0,0,0,23.38,17c-.12-.6-.24-1.08-.36-1.56a7.341,7.341,0,0,0-.6-1.44,4.7,4.7,0,0,0-.96-1.2,4.955,4.955,0,0,0-1.32-.84,3.833,3.833,0,0,0-1.68-.36,2.4,2.4,0,0,0-.96.36,6.7,6.7,0,0,1-.96.6,6.985,6.985,0,0,1-1.32.6,7.023,7.023,0,0,1-1.56.24,7.023,7.023,0,0,1-1.56-.24,4.436,4.436,0,0,1-1.32-.6,11.069,11.069,0,0,0-.96-.6,2.4,2.4,0,0,0-.96-.36,3.833,3.833,0,0,0-1.68.36,4.955,4.955,0,0,0-1.32.84A4.7,4.7,0,0,0,4.9,14a7.34,7.34,0,0,0-.6,1.44c-.12.48-.24.96-.36,1.56-.12.48-.12,1.08-.24,1.56V20a3.808,3.808,0,0,0,1.2,3,3.993,3.993,0,0,0,3,1.08H19.42a4.183,4.183,0,0,0,3-1.08,3.808,3.808,0,0,0,1.2-3Zm-2.16,3.36a2.823,2.823,0,0,1-2.04.72H7.9a2.823,2.823,0,0,1-2.04-.72,2.638,2.638,0,0,1-.72-2.04V18.56c0-.36.12-.84.12-1.32.12-.48.24-.96.36-1.32a5.015,5.015,0,0,1,.48-1.2,6.656,6.656,0,0,1,.72-.96,5.218,5.218,0,0,1,.84-.48,3.5,3.5,0,0,1,1.08-.24.419.419,0,0,0,.24.12,6.7,6.7,0,0,0,.96.6,9.715,9.715,0,0,0,1.56.72,5.605,5.605,0,0,0,2.04.36,6.1,6.1,0,0,0,2.04-.36,9.714,9.714,0,0,0,1.56-.72,11.068,11.068,0,0,1,.96-.6.372.372,0,0,1,.24-.12,3.5,3.5,0,0,1,1.08.24,2.613,2.613,0,0,1,.96.6,6.656,6.656,0,0,1,.72.96,3.594,3.594,0,0,1,.48,1.2c.12.36.24.84.36,1.32a5.381,5.381,0,0,1,.12,1.32h0V20A1.653,1.653,0,0,1,21.46,21.92Z" transform="translate(-3.7 -0.08)"/>
</svg>
