<svg id="Group_509" data-name="Group 509" xmlns="http://www.w3.org/2000/svg" width="62.555" height="50" viewBox="0 0 62.555 50">
  <g id="Group_508" data-name="Group 508">
    <path id="Path_13545" data-name="Path 13545" d="M62.555,76.716a1.246,1.246,0,0,0-.6-1.065L59.564,74.2l2.391-1.451a1.246,1.246,0,0,0,0-2.131l-31.4-19.056a1.245,1.245,0,0,0-1.293,0L14.234,60.682l-12.347-7.4A1.246,1.246,0,0,0,0,54.353V80.661A1.246,1.246,0,0,0,.606,81.73L33.1,101.2a1.246,1.246,0,0,0,1.887-1.069V90.94l6.128,3.719a1.246,1.246,0,0,0,1.293,0L61.955,82.8a1.246,1.246,0,0,0,0-2.131l-2.379-1.444,2.379-1.444A1.246,1.246,0,0,0,62.555,76.716ZM32.5,97.935,2.492,79.955v-23.4L32.5,74.532Zm2.492-19.962V73.826a1.246,1.246,0,0,0-.606-1.069L16.651,62.131,29.91,54.085l29,17.6-17.141,10.4Zm23.916-1.258-17.141,10.4-6.775-4.111V80.889l6.128,3.719a1.246,1.246,0,0,0,1.293,0l14.75-8.951ZM41.766,92.136l-6.775-4.111v-2.1l6.128,3.719a1.246,1.246,0,0,0,1.293,0l14.763-8.959,1.733,1.052Z" transform="translate(0 -51.381)" fill="#2a6ef6"/>
  </g>
</svg>
