<svg xmlns="http://www.w3.org/2000/svg" width="24.001" height="18" viewBox="0 0 24.001 18">
  <g id="envelope" transform="translate(0 -64)">
    <g id="Group_10943" data-name="Group 10943" transform="translate(0 64)">
      <path id="Path_14000" data-name="Path 14000" d="M22,64H2a2,2,0,0,0-2,2V80a2,2,0,0,0,2,2H22a2,2,0,0,0,2-2V66a2,2,0,0,0-2-2ZM2,65H22a.951.951,0,0,1,.208.042c-1.734,1.585-7.471,6.833-9.483,8.648a1,1,0,0,1-1.451,0c-2.009-1.815-7.751-7.064-9.483-8.648A.956.956,0,0,1,2,65ZM1,80V66a.966.966,0,0,1,.056-.277c1.325,1.213,5.331,4.878,7.929,7.24-2.587,2.224-6.6,6.023-7.932,7.3A.963.963,0,0,1,1,80Zm21,1H2a.957.957,0,0,1-.225-.046c1.375-1.316,5.412-5.141,7.956-7.312l.873.787a2,2,0,0,0,2.79,0l.874-.788c2.544,2.176,6.576,6,7.957,7.313A.957.957,0,0,1,22,81Zm1-1a.965.965,0,0,1-.053.261c-1.337-1.275-5.343-5.073-7.932-7.3,2.6-2.362,6.6-6.027,7.929-7.24A.967.967,0,0,1,23,66Z" transform="translate(0 -64)" fill="#225acb"/>
    </g>
  </g>
</svg>
