<svg id="Group_910" data-name="Group 910" xmlns="http://www.w3.org/2000/svg" width="20.907" height="25.19" viewBox="0 0 20.907 25.19">
  <path id="Path_14" data-name="Path 14" d="M13.145,14.091a6.02,6.02,0,0,0,6.045-6.045,6,6,0,0,0-1.763-4.282A6.22,6.22,0,0,0,13.145,2,6.02,6.02,0,0,0,7.1,8.045a6,6,0,0,0,1.763,4.282A5.525,5.525,0,0,0,13.145,14.091ZM9.871,4.771a4.573,4.573,0,0,1,3.275-1.385A4.121,4.121,0,0,1,16.42,4.771a4.573,4.573,0,0,1,1.385,3.275A4.121,4.121,0,0,1,16.42,11.32a4.573,4.573,0,0,1-3.275,1.385A4.121,4.121,0,0,1,9.871,11.32,4.573,4.573,0,0,1,8.485,8.045,4.8,4.8,0,0,1,9.871,4.771Z" transform="translate(-2.818 -2)" fill="#225acb"/>
  <path id="Path_15" data-name="Path 15" d="M24.607,18.9a8.668,8.668,0,0,0-.252-1.637c-.126-.63-.252-1.134-.378-1.637a7.7,7.7,0,0,0-.63-1.511,4.931,4.931,0,0,0-1.008-1.259,5.2,5.2,0,0,0-1.385-.882,4.023,4.023,0,0,0-1.763-.378,2.515,2.515,0,0,0-1.008.378,7.03,7.03,0,0,1-1.008.63,7.332,7.332,0,0,1-1.385.63,7.371,7.371,0,0,1-1.637.252,7.371,7.371,0,0,1-1.637-.252,4.656,4.656,0,0,1-1.385-.63,11.617,11.617,0,0,0-1.008-.63A2.515,2.515,0,0,0,9.116,11.6a4.023,4.023,0,0,0-1.763.378,5.2,5.2,0,0,0-1.385.882,4.931,4.931,0,0,0-1.008,1.259,7.7,7.7,0,0,0-.63,1.511c-.126.5-.252,1.008-.378,1.637-.126.5-.126,1.134-.252,1.637v1.511a4,4,0,0,0,1.259,3.149A4.191,4.191,0,0,0,8.108,24.7H20.2a4.39,4.39,0,0,0,3.149-1.134,4,4,0,0,0,1.259-3.149ZM22.34,22.431a2.963,2.963,0,0,1-2.141.756H8.108a2.963,2.963,0,0,1-2.141-.756,2.769,2.769,0,0,1-.756-2.141V18.9c0-.378.126-.882.126-1.385.126-.5.252-1.008.378-1.385a5.264,5.264,0,0,1,.5-1.259,6.986,6.986,0,0,1,.756-1.008,5.476,5.476,0,0,1,.882-.5,3.678,3.678,0,0,1,1.134-.252.44.44,0,0,0,.252.126,7.031,7.031,0,0,0,1.008.63,10.2,10.2,0,0,0,1.637.756A5.883,5.883,0,0,0,14.028,15a6.4,6.4,0,0,0,2.141-.378,10.2,10.2,0,0,0,1.637-.756,11.616,11.616,0,0,1,1.008-.63.39.39,0,0,1,.252-.126,3.678,3.678,0,0,1,1.134.252,2.742,2.742,0,0,1,1.008.63A6.986,6.986,0,0,1,21.962,15a3.772,3.772,0,0,1,.5,1.259c.126.378.252.882.378,1.385a5.648,5.648,0,0,1,.126,1.385h0v1.385A1.735,1.735,0,0,1,22.34,22.431Z" transform="translate(-3.7 0.491)" fill="#225acb"/>
</svg>
